<mxfile host="app.diagrams.net" modified="2023-12-25T19:23:54.449Z" agent="Mozilla/5.0 (Windows NT 10.0; Win64; x64) AppleWebKit/537.36 (KHTML, like Gecko) Chrome/120.0.0.0 Safari/537.36" etag="x5-HM7sKW6zRijiGHGgZ" version="22.1.11" type="device">
  <diagram name="Page-1" id="FcJH-Z4t9lqNdIpB60NR">
    <mxGraphModel dx="1725" dy="451" grid="1" gridSize="10" guides="1" tooltips="1" connect="1" arrows="1" fold="1" page="1" pageScale="1" pageWidth="850" pageHeight="1100" math="0" shadow="0">
      <root>
        <mxCell id="0" />
        <mxCell id="1" parent="0" />
        <mxCell id="SfPmuoAr8hzWgJLUk2lE-54" value="" style="rounded=0;whiteSpace=wrap;html=1;fillColor=none;" parent="1" vertex="1">
          <mxGeometry x="-60" width="900" height="760" as="geometry" />
        </mxCell>
        <mxCell id="3XUADEzdGJmMBm6TumV_-1" value="Korisnik" style="shape=umlActor;verticalLabelPosition=bottom;verticalAlign=top;html=1;outlineConnect=0;" parent="1" vertex="1">
          <mxGeometry x="85" y="20" width="30" height="60" as="geometry" />
        </mxCell>
        <mxCell id="3XUADEzdGJmMBm6TumV_-2" value="" style="rounded=0;whiteSpace=wrap;html=1;" parent="1" vertex="1">
          <mxGeometry x="90" y="110" width="20" height="630" as="geometry" />
        </mxCell>
        <mxCell id="3XUADEzdGJmMBm6TumV_-9" value="" style="rounded=0;whiteSpace=wrap;html=1;" parent="1" vertex="1">
          <mxGeometry x="750" y="120" width="20" height="600" as="geometry" />
        </mxCell>
        <mxCell id="3XUADEzdGJmMBm6TumV_-11" value="Aplikacija" style="rounded=0;whiteSpace=wrap;html=1;" parent="1" vertex="1">
          <mxGeometry x="700" y="20" width="120" height="60" as="geometry" />
        </mxCell>
        <mxCell id="3XUADEzdGJmMBm6TumV_-14" value="" style="endArrow=none;html=1;rounded=0;entryX=0.5;entryY=1;entryDx=0;entryDy=0;dashed=1;" parent="1" source="3XUADEzdGJmMBm6TumV_-9" target="3XUADEzdGJmMBm6TumV_-11" edge="1">
          <mxGeometry width="50" height="50" relative="1" as="geometry">
            <mxPoint x="650" y="180" as="sourcePoint" />
            <mxPoint x="791" y="92" as="targetPoint" />
          </mxGeometry>
        </mxCell>
        <mxCell id="3XUADEzdGJmMBm6TumV_-20" value="Prozor za dodavanje događaja" style="rounded=0;whiteSpace=wrap;html=1;" parent="1" vertex="1">
          <mxGeometry x="360" y="20" width="120" height="60" as="geometry" />
        </mxCell>
        <mxCell id="3XUADEzdGJmMBm6TumV_-21" value="" style="rounded=0;whiteSpace=wrap;html=1;" parent="1" vertex="1">
          <mxGeometry x="410" y="240" width="20" height="160" as="geometry" />
        </mxCell>
        <mxCell id="3XUADEzdGJmMBm6TumV_-27" value="" style="endArrow=none;dashed=1;html=1;rounded=0;labelBackgroundColor=default;strokeColor=default;align=center;verticalAlign=middle;fontFamily=Helvetica;fontSize=11;fontColor=default;shape=connector;entryX=0.5;entryY=1;entryDx=0;entryDy=0;exitX=0.5;exitY=0;exitDx=0;exitDy=0;" parent="1" source="3XUADEzdGJmMBm6TumV_-21" target="3XUADEzdGJmMBm6TumV_-20" edge="1">
          <mxGeometry width="50" height="50" relative="1" as="geometry">
            <mxPoint x="450" y="410" as="sourcePoint" />
            <mxPoint x="500" y="360" as="targetPoint" />
          </mxGeometry>
        </mxCell>
        <mxCell id="3XUADEzdGJmMBm6TumV_-32" value="Glavni prozor" style="rounded=0;whiteSpace=wrap;html=1;fontFamily=Helvetica;fontSize=11;fontColor=default;" parent="1" vertex="1">
          <mxGeometry x="520" y="20" width="120" height="60" as="geometry" />
        </mxCell>
        <mxCell id="3XUADEzdGJmMBm6TumV_-33" value="" style="rounded=0;whiteSpace=wrap;html=1;" parent="1" vertex="1">
          <mxGeometry x="570" y="160" width="20" height="520" as="geometry" />
        </mxCell>
        <mxCell id="3XUADEzdGJmMBm6TumV_-34" value="" style="endArrow=none;dashed=1;html=1;rounded=0;labelBackgroundColor=default;strokeColor=default;align=center;verticalAlign=middle;fontFamily=Helvetica;fontSize=11;fontColor=default;shape=connector;entryX=0.5;entryY=1;entryDx=0;entryDy=0;exitX=0.5;exitY=0;exitDx=0;exitDy=0;" parent="1" source="3XUADEzdGJmMBm6TumV_-33" target="3XUADEzdGJmMBm6TumV_-32" edge="1">
          <mxGeometry width="50" height="50" relative="1" as="geometry">
            <mxPoint x="450" y="410" as="sourcePoint" />
            <mxPoint x="500" y="360" as="targetPoint" />
          </mxGeometry>
        </mxCell>
        <mxCell id="3XUADEzdGJmMBm6TumV_-47" value="" style="rounded=0;whiteSpace=wrap;html=1;" parent="1" vertex="1">
          <mxGeometry x="250" y="400" width="20" height="200" as="geometry" />
        </mxCell>
        <mxCell id="3XUADEzdGJmMBm6TumV_-50" value="Prozor sa generisanim rasporedima" style="rounded=0;whiteSpace=wrap;html=1;fontFamily=Helvetica;fontSize=11;fontColor=default;" parent="1" vertex="1">
          <mxGeometry x="200" y="20" width="120" height="60" as="geometry" />
        </mxCell>
        <mxCell id="3XUADEzdGJmMBm6TumV_-51" value="" style="endArrow=none;dashed=1;html=1;rounded=0;labelBackgroundColor=default;strokeColor=default;align=center;verticalAlign=middle;fontFamily=Helvetica;fontSize=11;fontColor=default;shape=connector;entryX=0.5;entryY=1;entryDx=0;entryDy=0;exitX=0.5;exitY=0;exitDx=0;exitDy=0;" parent="1" source="3XUADEzdGJmMBm6TumV_-47" target="3XUADEzdGJmMBm6TumV_-50" edge="1">
          <mxGeometry width="50" height="50" relative="1" as="geometry">
            <mxPoint x="520" y="480" as="sourcePoint" />
            <mxPoint x="570" y="430" as="targetPoint" />
          </mxGeometry>
        </mxCell>
        <mxCell id="SfPmuoAr8hzWgJLUk2lE-5" value="" style="endArrow=classic;html=1;rounded=0;entryX=1;entryY=0;entryDx=0;entryDy=0;exitX=0.003;exitY=0.063;exitDx=0;exitDy=0;exitPerimeter=0;dashed=1;" parent="1" source="3XUADEzdGJmMBm6TumV_-9" target="3XUADEzdGJmMBm6TumV_-33" edge="1">
          <mxGeometry width="50" height="50" relative="1" as="geometry">
            <mxPoint x="600" y="470" as="sourcePoint" />
            <mxPoint x="650" y="420" as="targetPoint" />
          </mxGeometry>
        </mxCell>
        <mxCell id="SfPmuoAr8hzWgJLUk2lE-8" value="2. Prikaz sadržaja glavnog prozora" style="edgeLabel;html=1;align=center;verticalAlign=middle;resizable=0;points=[];" parent="SfPmuoAr8hzWgJLUk2lE-5" vertex="1" connectable="0">
          <mxGeometry x="-0.2263" y="-1" relative="1" as="geometry">
            <mxPoint x="-17" y="-8" as="offset" />
          </mxGeometry>
        </mxCell>
        <mxCell id="SfPmuoAr8hzWgJLUk2lE-6" value="" style="endArrow=classic;html=1;rounded=0;exitX=1.093;exitY=0.015;exitDx=0;exitDy=0;exitPerimeter=0;entryX=0;entryY=0;entryDx=0;entryDy=0;" parent="1" source="3XUADEzdGJmMBm6TumV_-2" target="3XUADEzdGJmMBm6TumV_-9" edge="1">
          <mxGeometry width="50" height="50" relative="1" as="geometry">
            <mxPoint x="430" y="180" as="sourcePoint" />
            <mxPoint x="480" y="130" as="targetPoint" />
          </mxGeometry>
        </mxCell>
        <mxCell id="SfPmuoAr8hzWgJLUk2lE-7" value="1. Korisnik pokreće aplikaciju" style="edgeLabel;html=1;align=center;verticalAlign=middle;resizable=0;points=[];" parent="SfPmuoAr8hzWgJLUk2lE-6" vertex="1" connectable="0">
          <mxGeometry x="0.1664" y="1" relative="1" as="geometry">
            <mxPoint as="offset" />
          </mxGeometry>
        </mxCell>
        <mxCell id="SfPmuoAr8hzWgJLUk2lE-9" value="" style="endArrow=classic;html=1;rounded=0;exitX=1.084;exitY=0.143;exitDx=0;exitDy=0;exitPerimeter=0;entryX=-0.024;entryY=0.077;entryDx=0;entryDy=0;entryPerimeter=0;" parent="1" source="3XUADEzdGJmMBm6TumV_-2" target="3XUADEzdGJmMBm6TumV_-33" edge="1">
          <mxGeometry width="50" height="50" relative="1" as="geometry">
            <mxPoint x="450" y="340" as="sourcePoint" />
            <mxPoint x="500" y="290" as="targetPoint" />
          </mxGeometry>
        </mxCell>
        <mxCell id="SfPmuoAr8hzWgJLUk2lE-10" value="3. Korisnik pritiska dugme &#39;smart plan&#39;" style="edgeLabel;html=1;align=center;verticalAlign=middle;resizable=0;points=[];" parent="SfPmuoAr8hzWgJLUk2lE-9" vertex="1" connectable="0">
          <mxGeometry x="-0.1378" y="2" relative="1" as="geometry">
            <mxPoint y="-8" as="offset" />
          </mxGeometry>
        </mxCell>
        <mxCell id="SfPmuoAr8hzWgJLUk2lE-11" value="" style="endArrow=classic;html=1;rounded=0;entryX=1;entryY=0;entryDx=0;entryDy=0;exitX=0.022;exitY=0.154;exitDx=0;exitDy=0;exitPerimeter=0;dashed=1;" parent="1" source="3XUADEzdGJmMBm6TumV_-33" target="3XUADEzdGJmMBm6TumV_-21" edge="1">
          <mxGeometry width="50" height="50" relative="1" as="geometry">
            <mxPoint x="540" y="240" as="sourcePoint" />
            <mxPoint x="610" y="260" as="targetPoint" />
          </mxGeometry>
        </mxCell>
        <mxCell id="SfPmuoAr8hzWgJLUk2lE-12" value="4. Prikaz prozora&lt;br&gt;za dodavanje događaja" style="edgeLabel;html=1;align=center;verticalAlign=middle;resizable=0;points=[];" parent="SfPmuoAr8hzWgJLUk2lE-11" vertex="1" connectable="0">
          <mxGeometry x="0.12" relative="1" as="geometry">
            <mxPoint x="4" y="-20" as="offset" />
          </mxGeometry>
        </mxCell>
        <mxCell id="SfPmuoAr8hzWgJLUk2lE-14" value="" style="endArrow=classic;html=1;rounded=0;exitX=1.05;exitY=0.27;exitDx=0;exitDy=0;exitPerimeter=0;" parent="1" source="3XUADEzdGJmMBm6TumV_-2" edge="1">
          <mxGeometry width="50" height="50" relative="1" as="geometry">
            <mxPoint x="640" y="300" as="sourcePoint" />
            <mxPoint x="410" y="280" as="targetPoint" />
          </mxGeometry>
        </mxCell>
        <mxCell id="SfPmuoAr8hzWgJLUk2lE-15" value="5. Korisnik dodaje događaj" style="edgeLabel;html=1;align=center;verticalAlign=middle;resizable=0;points=[];" parent="SfPmuoAr8hzWgJLUk2lE-14" vertex="1" connectable="0">
          <mxGeometry x="0.0023" y="-2" relative="1" as="geometry">
            <mxPoint y="-12" as="offset" />
          </mxGeometry>
        </mxCell>
        <mxCell id="SfPmuoAr8hzWgJLUk2lE-20" value="loop" style="rounded=0;whiteSpace=wrap;html=1;" parent="1" vertex="1">
          <mxGeometry x="110" y="235" width="40" height="15" as="geometry" />
        </mxCell>
        <mxCell id="SfPmuoAr8hzWgJLUk2lE-21" value="" style="endArrow=classic;html=1;rounded=0;exitX=1.1;exitY=0.397;exitDx=0;exitDy=0;exitPerimeter=0;" parent="1" edge="1">
          <mxGeometry width="50" height="50" relative="1" as="geometry">
            <mxPoint x="112" y="350.11" as="sourcePoint" />
            <mxPoint x="410" y="350" as="targetPoint" />
          </mxGeometry>
        </mxCell>
        <mxCell id="SfPmuoAr8hzWgJLUk2lE-22" value="6. Korisnik pritiska dugme &#39;generate&#39;" style="edgeLabel;html=1;align=center;verticalAlign=middle;resizable=0;points=[];" parent="SfPmuoAr8hzWgJLUk2lE-21" vertex="1" connectable="0">
          <mxGeometry x="0.1059" relative="1" as="geometry">
            <mxPoint x="-25" y="-10" as="offset" />
          </mxGeometry>
        </mxCell>
        <mxCell id="SfPmuoAr8hzWgJLUk2lE-23" value="" style="endArrow=classic;html=1;rounded=0;entryX=1;entryY=0;entryDx=0;entryDy=0;dashed=1;" parent="1" target="3XUADEzdGJmMBm6TumV_-47" edge="1">
          <mxGeometry width="50" height="50" relative="1" as="geometry">
            <mxPoint x="410" y="400" as="sourcePoint" />
            <mxPoint x="370" y="470" as="targetPoint" />
            <Array as="points" />
          </mxGeometry>
        </mxCell>
        <mxCell id="SfPmuoAr8hzWgJLUk2lE-26" value="7. Aplikacija generiše rasporede" style="edgeLabel;html=1;align=center;verticalAlign=middle;resizable=0;points=[];" parent="SfPmuoAr8hzWgJLUk2lE-23" vertex="1" connectable="0">
          <mxGeometry x="-0.0959" y="-1" relative="1" as="geometry">
            <mxPoint x="-13" y="-9" as="offset" />
          </mxGeometry>
        </mxCell>
        <mxCell id="SfPmuoAr8hzWgJLUk2lE-27" value="" style="endArrow=classic;html=1;rounded=0;exitX=0.288;exitY=0.274;exitDx=0;exitDy=0;exitPerimeter=0;entryX=0.558;entryY=0.274;entryDx=0;entryDy=0;entryPerimeter=0;" parent="1" source="SfPmuoAr8hzWgJLUk2lE-42" target="SfPmuoAr8hzWgJLUk2lE-42" edge="1">
          <mxGeometry width="50" height="50" relative="1" as="geometry">
            <mxPoint x="110" y="440" as="sourcePoint" />
            <mxPoint x="250" y="480" as="targetPoint" />
          </mxGeometry>
        </mxCell>
        <mxCell id="SfPmuoAr8hzWgJLUk2lE-28" value="8. Korisnik bira raspored" style="edgeLabel;html=1;align=center;verticalAlign=middle;resizable=0;points=[];" parent="SfPmuoAr8hzWgJLUk2lE-27" vertex="1" connectable="0">
          <mxGeometry x="-0.3688" y="2" relative="1" as="geometry">
            <mxPoint x="20" y="-8" as="offset" />
          </mxGeometry>
        </mxCell>
        <mxCell id="SfPmuoAr8hzWgJLUk2lE-30" value="alt" style="shape=umlFrame;whiteSpace=wrap;html=1;pointerEvents=0;strokeWidth=2;" parent="1" vertex="1">
          <mxGeometry x="-10" y="420" width="330" height="160" as="geometry" />
        </mxCell>
        <mxCell id="SfPmuoAr8hzWgJLUk2lE-33" value="[ako se korisniku&lt;br&gt;svidi raspored]" style="text;html=1;align=center;verticalAlign=middle;resizable=0;points=[];autosize=1;strokeColor=none;fillColor=none;" parent="1" vertex="1">
          <mxGeometry x="-20" y="450" width="110" height="40" as="geometry" />
        </mxCell>
        <mxCell id="SfPmuoAr8hzWgJLUk2lE-34" value="" style="endArrow=none;dashed=1;html=1;rounded=0;exitX=0.002;exitY=0.343;exitDx=0;exitDy=0;exitPerimeter=0;entryX=1;entryY=0.343;entryDx=0;entryDy=0;entryPerimeter=0;strokeWidth=2;" parent="1" edge="1">
          <mxGeometry width="50" height="50" relative="1" as="geometry">
            <mxPoint x="-9.339999999999918" y="505.1700000000001" as="sourcePoint" />
            <mxPoint x="320" y="505.1700000000001" as="targetPoint" />
          </mxGeometry>
        </mxCell>
        <mxCell id="SfPmuoAr8hzWgJLUk2lE-38" value="" style="endArrow=classic;html=1;rounded=0;entryX=-0.14;entryY=0.801;entryDx=0;entryDy=0;entryPerimeter=0;exitX=0.75;exitY=1;exitDx=0;exitDy=0;" parent="1" source="3XUADEzdGJmMBm6TumV_-47" target="3XUADEzdGJmMBm6TumV_-9" edge="1">
          <mxGeometry width="50" height="50" relative="1" as="geometry">
            <mxPoint x="270" y="480" as="sourcePoint" />
            <mxPoint x="111" y="640" as="targetPoint" />
          </mxGeometry>
        </mxCell>
        <mxCell id="SfPmuoAr8hzWgJLUk2lE-39" value="10. Aplikacija čuva raspored" style="edgeLabel;html=1;align=center;verticalAlign=middle;resizable=0;points=[];" parent="SfPmuoAr8hzWgJLUk2lE-38" vertex="1" connectable="0">
          <mxGeometry x="0.0846" y="-1" relative="1" as="geometry">
            <mxPoint x="-8" y="-9" as="offset" />
          </mxGeometry>
        </mxCell>
        <mxCell id="SfPmuoAr8hzWgJLUk2lE-43" value="loop" style="rounded=0;whiteSpace=wrap;html=1;strokeWidth=2;fontStyle=0" parent="1" vertex="1">
          <mxGeometry x="-11" y="350" width="50" height="20" as="geometry" />
        </mxCell>
        <mxCell id="SfPmuoAr8hzWgJLUk2lE-47" value="[inace hoće da&lt;br&gt;&amp;nbsp;odustane]" style="text;html=1;align=center;verticalAlign=middle;resizable=0;points=[];autosize=1;strokeColor=none;fillColor=none;" parent="1" vertex="1">
          <mxGeometry x="-20" y="510" width="100" height="40" as="geometry" />
        </mxCell>
        <mxCell id="SfPmuoAr8hzWgJLUk2lE-48" value="" style="endArrow=classic;html=1;rounded=0;" parent="1" edge="1">
          <mxGeometry width="50" height="50" relative="1" as="geometry">
            <mxPoint x="110" y="560" as="sourcePoint" />
            <mxPoint x="250" y="560" as="targetPoint" />
          </mxGeometry>
        </mxCell>
        <mxCell id="SfPmuoAr8hzWgJLUk2lE-49" value="9. Korisnik pritiska dugme&lt;br&gt;&#39;cancel&#39;" style="edgeLabel;html=1;align=center;verticalAlign=middle;resizable=0;points=[];" parent="SfPmuoAr8hzWgJLUk2lE-48" vertex="1" connectable="0">
          <mxGeometry x="-0.1873" y="2" relative="1" as="geometry">
            <mxPoint x="13" y="-18" as="offset" />
          </mxGeometry>
        </mxCell>
        <mxCell id="My7f04uXXnYBfHsE6I_k-1" value="[dok korisnik ne unese sve događaje]" style="text;html=1;strokeColor=none;fillColor=none;align=center;verticalAlign=middle;whiteSpace=wrap;rounded=0;fontStyle=1;fontSize=8;" parent="1" vertex="1">
          <mxGeometry x="150" y="227.5" width="150" height="30" as="geometry" />
        </mxCell>
        <mxCell id="My7f04uXXnYBfHsE6I_k-2" value="" style="endArrow=classic;html=1;rounded=0;entryX=0.9;entryY=0.98;entryDx=0;entryDy=0;exitX=0.003;exitY=0.063;exitDx=0;exitDy=0;exitPerimeter=0;dashed=1;entryPerimeter=0;" parent="1" edge="1" target="3XUADEzdGJmMBm6TumV_-33">
          <mxGeometry width="50" height="50" relative="1" as="geometry">
            <mxPoint x="750" y="668" as="sourcePoint" />
            <mxPoint x="588.8000000000002" y="665.56" as="targetPoint" />
          </mxGeometry>
        </mxCell>
        <mxCell id="My7f04uXXnYBfHsE6I_k-3" value="11. Prikaz sadržaja glavnog prozora" style="edgeLabel;html=1;align=center;verticalAlign=middle;resizable=0;points=[];" parent="My7f04uXXnYBfHsE6I_k-2" vertex="1" connectable="0">
          <mxGeometry x="-0.2263" y="-1" relative="1" as="geometry">
            <mxPoint x="-17" y="-18" as="offset" />
          </mxGeometry>
        </mxCell>
        <mxCell id="SfPmuoAr8hzWgJLUk2lE-16" value="" style="rounded=1;whiteSpace=wrap;html=1;fillColor=none;" parent="1" vertex="1">
          <mxGeometry x="85" y="250" width="355" height="70" as="geometry" />
        </mxCell>
        <mxCell id="My7f04uXXnYBfHsE6I_k-4" style="edgeStyle=orthogonalEdgeStyle;rounded=0;orthogonalLoop=1;jettySize=auto;html=1;exitX=0.5;exitY=1;exitDx=0;exitDy=0;" parent="1" source="3XUADEzdGJmMBm6TumV_-21" target="3XUADEzdGJmMBm6TumV_-21" edge="1">
          <mxGeometry relative="1" as="geometry" />
        </mxCell>
        <mxCell id="SfPmuoAr8hzWgJLUk2lE-42" value="" style="rounded=1;whiteSpace=wrap;html=1;fillColor=none;strokeWidth=2;" parent="1" vertex="1">
          <mxGeometry x="-40" y="375" width="520" height="310" as="geometry" />
        </mxCell>
        <mxCell id="ZXpOkgAhYzjfxyzW8u1l-1" value="[dok korisnik ne izabere raspored ili odustane]" style="text;html=1;strokeColor=none;fillColor=none;align=center;verticalAlign=middle;whiteSpace=wrap;rounded=0;fontStyle=1;fontSize=9;" vertex="1" parent="1">
          <mxGeometry x="40" y="347.5" width="210" height="30" as="geometry" />
        </mxCell>
      </root>
    </mxGraphModel>
  </diagram>
</mxfile>
